<svg xmlns="http://www.w3.org/2000/svg" xmlns:xlink="http://www.w3.org/1999/xlink" version="1.1" width="256" height="256" viewBox="0 0 256 256" xml:space="preserve">

<defs>
</defs>
<g style="stroke: none; stroke-width: 0; stroke-dasharray: none; stroke-linecap: butt; stroke-linejoin: miter; stroke-miterlimit: 10; fill: none; fill-rule: nonzero; opacity: 1;" transform="translate(1.4065934065934016 1.4065934065934016) scale(2.81 2.81)" >
	<linearGradient id="SVGID_1" gradientUnits="userSpaceOnUse" x1="45" y1="84.9728" x2="45" y2="6.8522">
<stop offset="0%" style="stop-color:rgb(29,157,190);stop-opacity: 1"/>
<stop offset="100%" style="stop-color:rgb(63,196,162);stop-opacity: 1"/>
</linearGradient>
<path d="M 5.458 24.63 V 65.37 c 0 1.522 0.812 2.928 2.13 3.689 l 35.282 20.37 c 1.318 0.761 2.941 0.761 4.259 0 l 35.282 -20.37 c 1.318 -0.761 2.13 -2.167 2.13 -3.689 V 24.63 c 0 -1.522 -0.812 -2.928 -2.13 -3.689 L 47.13 0.571 c -1.318 -0.761 -2.941 -0.761 -4.259 0 L 7.588 20.941 C 6.27 21.702 5.458 23.108 5.458 24.63 z" style="stroke: none; stroke-width: 1; stroke-dasharray: none; stroke-linecap: butt; stroke-linejoin: miter; stroke-miterlimit: 10; fill: url(#SVGID_1); fill-rule: nonzero; opacity: 1;" transform=" matrix(1 0 0 1 0 0) " stroke-linecap="round" />
	<path d="M 32.18 59.329 c -0.679 0 -1.328 -0.347 -1.699 -0.945 L 18.875 39.686 v 17.644 c 0 1.104 -0.896 2 -2 2 s -2 -0.896 -2 -2 V 32.671 c 0 -0.894 0.592 -1.678 1.452 -1.923 c 0.859 -0.245 1.776 0.109 2.248 0.869 L 30.18 50.314 V 32.671 c 0 -1.104 0.896 -2 2 -2 s 2 0.896 2 2 v 24.658 c 0 0.894 -0.592 1.679 -1.452 1.924 C 32.547 59.305 32.362 59.329 32.18 59.329 z" style="stroke: none; stroke-width: 1; stroke-dasharray: none; stroke-linecap: butt; stroke-linejoin: miter; stroke-miterlimit: 10; fill: rgb(255,255,255); fill-rule: nonzero; opacity: 1;" transform=" matrix(1 0 0 1 0 0) " stroke-linecap="round" />
	<path d="M 41.742 59.329 c -1.104 0 -2 -0.896 -2 -2 V 32.671 c 0 -1.104 0.896 -2 2 -2 h 9.807 c 1.104 0 2 0.896 2 2 s -0.896 2 -2 2 h -7.807 v 22.658 C 43.742 58.434 42.847 59.329 41.742 59.329 z" style="stroke: none; stroke-width: 1; stroke-dasharray: none; stroke-linecap: butt; stroke-linejoin: miter; stroke-miterlimit: 10; fill: rgb(255,255,255); fill-rule: nonzero; opacity: 1;" transform=" matrix(1 0 0 1 0 0) " stroke-linecap="round" />
	<path d="M 51.549 47 h -9.807 c -1.104 0 -2 -0.896 -2 -2 s 0.896 -2 2 -2 h 9.807 c 1.104 0 2 0.896 2 2 S 52.653 47 51.549 47 z" style="stroke: none; stroke-width: 1; stroke-dasharray: none; stroke-linecap: butt; stroke-linejoin: miter; stroke-miterlimit: 10; fill: rgb(255,255,255); fill-rule: nonzero; opacity: 1;" transform=" matrix(1 0 0 1 0 0) " stroke-linecap="round" />
	<path d="M 73.125 34.671 H 59.111 c -1.104 0 -2 -0.896 -2 -2 s 0.896 -2 2 -2 h 14.014 c 1.104 0 2 0.896 2 2 S 74.229 34.671 73.125 34.671 z" style="stroke: none; stroke-width: 1; stroke-dasharray: none; stroke-linecap: butt; stroke-linejoin: miter; stroke-miterlimit: 10; fill: rgb(255,255,255); fill-rule: nonzero; opacity: 1;" transform=" matrix(1 0 0 1 0 0) " stroke-linecap="round" />
	<path d="M 66.118 59.329 c -1.104 0 -2 -0.896 -2 -2 V 32.671 c 0 -1.104 0.896 -2 2 -2 s 2 0.896 2 2 v 24.658 C 68.118 58.434 67.223 59.329 66.118 59.329 z" style="stroke: none; stroke-width: 1; stroke-dasharray: none; stroke-linecap: butt; stroke-linejoin: miter; stroke-miterlimit: 10; fill: rgb(255,255,255); fill-rule: nonzero; opacity: 1;" transform=" matrix(1 0 0 1 0 0) " stroke-linecap="round" />
</g>
</svg>